<svg xmlns="http://www.w3.org/2000/svg" width="205" height="100" viewBox="0 0 205 100">
  <g id="그룹_5293" data-name="그룹 5293" transform="translate(-85 -70)">
    <g id="그룹_5292" data-name="그룹 5292" transform="translate(85 70)" opacity="0.5">
      <g id="그룹_5289" data-name="그룹 5289" transform="translate(0)">
        <circle id="타원_570" data-name="타원 570" cx="0.915" cy="0.915" r="0.915" transform="translate(98.085 13.182)" fill="#fff"/>
        <path id="패스_2039" data-name="패스 2039" d="M157.424,145.417a.873.873,0,0,0-.816.236,3.059,3.059,0,0,1-4.6-2.106,3.06,3.06,0,0,1,4.643-3.105l-.012-.012a.864.864,0,0,0,.715.217.868.868,0,0,0,.178-1.67,4.747,4.747,0,0,0-2.806-.7,4.773,4.773,0,0,0,.3,9.536,4.746,4.746,0,0,0,2.558-.747.865.865,0,0,1-.351.073h-.006a.869.869,0,0,0,.191-1.716Z" transform="translate(-150.255 -132.761)" fill="#fff"/>
        <path id="패스_2040" data-name="패스 2040" d="M166.226,143.039a4.8,4.8,0,1,0-1.717,3.668v.325a.794.794,0,0,0,.793.793h.133a.792.792,0,0,0,.792-.793v-3.964h0Zm-4.475,3.054a3.071,3.071,0,1,1,2.742-2.739A3.074,3.074,0,0,1,161.751,146.093Z" transform="translate(-146.899 -132.766)" fill="#fff"/>
        <path id="패스_2041" data-name="패스 2041" d="M204.664,147.746a4.783,4.783,0,1,1,4.239-4.236A4.79,4.79,0,0,1,204.664,147.746Zm-.221-7.661a2.922,2.922,0,1,0,2.611,2.608A2.927,2.927,0,0,0,204.443,140.085Z" transform="translate(-124.464 -132.788)" fill="#fff"/>
        <path id="패스_2042" data-name="패스 2042" d="M186.615,138.2a4.779,4.779,0,1,0,4.8,6.5.38.38,0,0,0-.354-.519h0a.375.375,0,0,0-.351.239,4.025,4.025,0,0,1-7.75-.993v0h8.325a.339.339,0,0,0,.038-.008.26.26,0,0,0,.037.008h0a.378.378,0,0,0,.38-.369v-.087A4.787,4.787,0,0,0,186.615,138.2Zm.342.747a4.023,4.023,0,0,1,4.008,3.715H182.95A4.023,4.023,0,0,1,186.957,138.946Z" transform="translate(-133.49 -132.801)" fill="#fff"/>
        <path id="패스_2043" data-name="패스 2043" d="M196.186,138.2a4.779,4.779,0,1,0,4.8,6.5.38.38,0,0,0-.354-.519h0a.375.375,0,0,0-.351.239,4.025,4.025,0,0,1-7.75-.993v0h8.325a.339.339,0,0,0,.038-.008.26.26,0,0,0,.037.008h0a.378.378,0,0,0,.38-.369l0-.087A4.787,4.787,0,0,0,196.186,138.2Zm.342.747a4.023,4.023,0,0,1,4.008,3.715h-8.015A4.023,4.023,0,0,1,196.528,138.946Z" transform="translate(-128.463 -132.801)" fill="#fff"/>
        <rect id="사각형_3719" data-name="사각형 3719" width="0.759" height="15.018" rx="0.249" transform="translate(60.32)" fill="#fff"/>
        <path id="패스_2044" data-name="패스 2044" d="M185.549,147.4v-5a4.137,4.137,0,0,0-.75-2.523,3.555,3.555,0,0,0-2.9-1.6,3.677,3.677,0,0,0-3.258,2.218,4.383,4.383,0,0,0-.377-.648,3.515,3.515,0,0,0-2.854-1.569,3.315,3.315,0,0,0-.371.023,3.611,3.611,0,0,0-2.34,1.379,4.391,4.391,0,0,0-.654,1.15l-.163.932V147.4a.376.376,0,0,0,.358.378.485.485,0,0,0,.233-.069.379.379,0,0,0,.159-.31v-5.129a3.477,3.477,0,0,1,.631-2.071,2.686,2.686,0,0,1,2.146-1.168,3.094,3.094,0,0,1,2.825,2.828c.011.066.021.131.029.2V147.4a.377.377,0,0,0,.375.38h0a.377.377,0,0,0,.375-.38v-5.279a3.163,3.163,0,0,1,2.884-3.09,3.2,3.2,0,0,1,2.9,3.3V147.4a.378.378,0,0,0,.357.378.5.5,0,0,0,.241-.075A.379.379,0,0,0,185.549,147.4Z" transform="translate(-138.895 -132.757)" fill="#fff"/>
        <path id="패스_2045" data-name="패스 2045" d="M216.39,142.772a4.666,4.666,0,0,0-1.855-3.552,4.748,4.748,0,0,0-5.785.035.917.917,0,0,0-.869-.622h-.061a.918.918,0,0,0-.915.915v7.382a.918.918,0,0,0,.915.917h0a.979.979,0,0,0,.976-.978V142.94a2.842,2.842,0,0,1,.212-1.138,2.9,2.9,0,0,1,5.314,0,2.816,2.816,0,0,1,.212,1.138v3.729h0v.261a.918.918,0,0,0,.915.917h0a.949.949,0,0,0,.947-.947v-4.031A.677.677,0,0,0,216.39,142.772Z" transform="translate(-120.5 -132.765)" fill="#fff"/>
        <path id="패스_2046" data-name="패스 2046" d="M166.128,139.191c0-.445-.538-.723-.84-.723h-.063a.93.93,0,0,0-.944.915v3.494" transform="translate(-142.888 -132.653)" fill="#fff"/>
        <path id="패스_2047" data-name="패스 2047" d="M164.281,143.006v3.963a.93.93,0,0,0,.944.915h.063a.93.93,0,0,0,.944-.915v-3.921a2.926,2.926,0,0,1,1.028-2.282,3.05,3.05,0,0,1,1.931-.682,3.015,3.015,0,0,1,2.86,2,.475.475,0,0,0,.45.323h1.013a.461.461,0,0,0,.459-.566,4.912,4.912,0,0,0-4.782-3.618,4.671,4.671,0,0,0-1.675.273,2.913,2.913,0,0,0-1.388.822" transform="translate(-142.888 -132.781)" fill="#fff"/>
      </g>
      <g id="그룹_5291" data-name="그룹 5291" transform="translate(0 28.964)">
        <g id="그룹_5290" data-name="그룹 5290">
          <path id="패스_2048" data-name="패스 2048" d="M168.427,182.08H154.892a4.247,4.247,0,0,1-4.477-4.529,4.2,4.2,0,0,1,4.477-4.477h14.174v-6.661a1.258,1.258,0,0,0-1.333-1.332H155.371a4.327,4.327,0,0,1-4.475-4.637,4.282,4.282,0,0,1,4.475-4.582H171.09c6.022,0,8.368,2.823,8.368,7.779v11.99c0,19.13-10.125,25.418-24.087,26.111-2.611.107-5.116-1.44-5.116-4.583A4.026,4.026,0,0,1,154.2,192.9C161.446,192.151,166.722,190.073,168.427,182.08Zm17.424-23.073a4.971,4.971,0,0,1,5.274-5.169,5.03,5.03,0,0,1,5.276,5.169v13.482h1.759c3.25,0,4.21,2.5,4.21,4.635,0,2.186-1.013,4.637-4.21,4.637H196.4v22.113h-10.55Z" transform="translate(-150.255 -153.838)" fill="#fff"/>
          <path id="패스_2049" data-name="패스 2049" d="M192.858,179.15c-7.086,0-8.259-1.6-8.259-8.419V163.7c0-6.819,1.173-8.419,8.259-8.419h7.3c6.981,0,8.154,1.547,8.207,8.1h3.676v-4.9a4.235,4.235,0,0,1,4.477-4.53,4.331,4.331,0,0,1,4.528,4.53v21.581h-9.005v-8.473h-3.676v7.567Zm1.013,24.724c-4.8,0-7.46-3.357-7.46-7.14V196.1c0-3.784,2.665-6.235,7.46-6.235H221.9v-1.333c0-.532-.319-.853-1.118-.853H189.875a2.817,2.817,0,0,1-2.878-3.09,2.874,2.874,0,0,1,2.878-3.09h36.447c4.689,0,6.394,1.385,6.394,5.541v8.419h-33.89a1.03,1.03,0,0,0-1.173,1.013v.16a1.03,1.03,0,0,0,1.173,1.013h32.291a2.929,2.929,0,0,1,2.985,3.2,2.853,2.853,0,0,1-2.985,3.037Zm1.385-41.138c-1.278,0-1.492.32-1.492,1.493V170.2c0,1.171.214,1.492,1.492,1.492h4.316v-7.46c0-1.173-.214-1.493-1.492-1.493Zm28.083-4.368a4.4,4.4,0,0,1,4.689-4.53,4.458,4.458,0,0,1,4.689,4.53v21.688h-9.377Z" transform="translate(-132.216 -153.838)" fill="#fff"/>
          <path id="패스_2050" data-name="패스 2050" d="M228.734,190.766c0,1.865.426,2.131,2.291,2.131h7.994a4.013,4.013,0,0,1,4.316,4.316,4.1,4.1,0,0,1-4.316,4.423H226.762c-6.5,0-8.1-1.545-8.1-7.887V181.6c0-6.34,1.6-7.78,8.1-7.78h2.825v-7.939c0-1.066-.374-1.386-1.438-1.386h-4.9a4.4,4.4,0,1,1,0-8.792h7.939c7.193,0,8.259,1.438,8.259,7.033v19.77h-8.419c-1.865,0-2.291.265-2.291,2.131Zm17.052-9.7h-1.44c-3.2,0-4.05-2.186-4.05-4.69,0-2.451.8-4.689,4.05-4.689h1.44V158.368a4.274,4.274,0,0,1,4.528-4.53,4.416,4.416,0,0,1,4.637,4.53v45.506h-9.165Zm11.616-22.7a4.4,4.4,0,0,1,4.689-4.53,4.458,4.458,0,0,1,4.689,4.53v45.506H257.4Z" transform="translate(-114.324 -153.838)" fill="#fff"/>
          <path id="패스_2051" data-name="패스 2051" d="M282.278,174.809v2.877h15.4a4.183,4.183,0,0,1,0,8.366H256.115a4.183,4.183,0,0,1,0-8.366h15.4v-2.877h-6.18c-7.834,0-11.616-4.156-11.616-10.231s3.783-10.39,11.616-10.39h23.339c7.832,0,11.616,4.315,11.616,10.39s-3.784,10.231-11.616,10.231Zm-27.656,21.155v-3.252c0-3.622,2.558-5.169,5.543-5.169s5.381,1.6,5.381,5.169v1.652c0,1.173.267,1.066,1.44,1.066h28.72c3.25,0,4.477,1.972,4.477,4.1,0,2.186-1.28,4.156-4.477,4.156H262.242C256.221,203.69,254.622,201.719,254.622,195.965Zm31.387-28.936c2.558,0,3.357-1.013,3.357-2.451,0-1.492-.8-2.4-3.357-2.4H268c-2.558,0-3.357.906-3.357,2.4,0,1.438.8,2.451,3.357,2.451Z" transform="translate(-96.835 -153.654)" fill="#fff"/>
        </g>
      </g>
    </g>
    <rect id="사각형_3720" data-name="사각형 3720" width="205" height="100" transform="translate(85 70)" fill="none"/>
  </g>
</svg>
